<svg xmlns="http://www.w3.org/2000/svg" xmlns:xlink="http://www.w3.org/1999/xlink" width="30" zoomAndPan="magnify" viewBox="0 0 37.5 37.499999" height="40" preserveAspectRatio="xMidYMid meet" version="1.0"><defs><clipPath id="7fc44b4161"><path d="M 13.640625 13 L 24.140625 13 L 24.140625 24 L 13.640625 24 Z M 13.640625 13 " clip-rule="nonzero"/></clipPath><clipPath id="801176d73e"><path d="M 13.640625 0 L 24.140625 0 L 24.140625 11 L 13.640625 11 Z M 13.640625 0 " clip-rule="nonzero"/></clipPath><clipPath id="a482d3a292"><path d="M 13.640625 27 L 24.140625 27 L 24.140625 37.007812 L 13.640625 37.007812 Z M 13.640625 27 " clip-rule="nonzero"/></clipPath></defs><g clip-path="url(#7fc44b4161)"><path fill="#ffffff" d="M 24.140625 18.75 C 24.140625 21.566406 21.785156 23.859375 18.890625 23.859375 C 15.996094 23.859375 13.640625 21.566406 13.640625 18.75 C 13.640625 15.933594 15.996094 13.640625 18.890625 13.640625 C 21.785156 13.640625 24.140625 15.933594 24.140625 18.75 Z M 24.140625 18.75 " fill-opacity="1" fill-rule="nonzero"/></g><g clip-path="url(#801176d73e)"><path fill="#ffffff" d="M 24.140625 5.125 C 24.140625 7.941406 21.785156 10.234375 18.890625 10.234375 C 15.996094 10.234375 13.640625 7.941406 13.640625 5.125 C 13.640625 2.308594 15.996094 0.015625 18.890625 0.015625 C 21.785156 0.015625 24.140625 2.308594 24.140625 5.125 Z M 24.140625 5.125 " fill-opacity="1" fill-rule="nonzero"/></g><g clip-path="url(#a482d3a292)"><path fill="#ffffff" d="M 24.140625 32.375 C 24.140625 35.191406 21.785156 37.484375 18.890625 37.484375 C 15.996094 37.484375 13.640625 35.191406 13.640625 32.375 C 13.640625 29.558594 15.996094 27.265625 18.890625 27.265625 C 21.785156 27.265625 24.140625 29.558594 24.140625 32.375 Z M 24.140625 32.375 " fill-opacity="1" fill-rule="nonzero"/></g></svg>